<svg xmlns="http://www.w3.org/2000/svg" width="10.03" height="10.03" viewBox="0 0 10.03 10.03">
  <g id="tICK" transform="translate(-0.005 -0.005)">
    <path id="check" d="M419.456,299.776l-2.232-2.223a.362.362,0,0,1,0-.491l.483-.483a.362.362,0,0,1,.491,0l1.5,1.5,3.205-3.205a.336.336,0,0,1,.482,0l.491.483a.345.345,0,0,1,0,.483l-3.938,3.938a.362.362,0,0,1-.491,0Z" transform="translate(-415.483 -292.064)"/>
    <rect id="Rectangle_142" data-name="Rectangle 142" width="9.28" height="9.28" rx="1.03" transform="translate(0.38 0.38)" fill="none" stroke="#231f20" stroke-miterlimit="10" stroke-width="0.75"/>
  </g>
</svg>
