<svg xmlns="http://www.w3.org/2000/svg" width="35.174" height="33.971" viewBox="0 0 35.174 33.971">
  <path id="clock" d="M25.587,8C15.872,8,8,15.6,8,24.985s7.872,16.985,17.587,16.985,17.587-7.6,17.587-16.985S35.3,8,25.587,8Zm0,30.683A13.943,13.943,0,0,1,11.4,24.985a13.943,13.943,0,0,1,14.183-13.7,13.943,13.943,0,0,1,14.183,13.7A13.943,13.943,0,0,1,25.587,38.683Zm4.383-7.15-6.021-4.226a.818.818,0,0,1-.347-.664V15.4a.839.839,0,0,1,.851-.822h2.269a.839.839,0,0,1,.851.822v9.7L32.31,28.43a.8.8,0,0,1,.184,1.151l-1.333,1.774A.877.877,0,0,1,29.97,31.533Z" transform="translate(-8 -8)" fill="#fff"/>
</svg>
