<svg xmlns="http://www.w3.org/2000/svg" width="27.267" height="28.734" viewBox="0 0 27.267 28.734">
  <path id="coins" d="M0,22.746v2.4c0,1.981,4.58,3.592,10.225,3.592S20.45,27.123,20.45,25.142v-2.4c-2.2,1.633-6.22,2.4-10.225,2.4S2.2,24.379,0,22.746ZM17.042,7.183c5.645,0,10.225-1.611,10.225-3.592S22.687,0,17.042,0,6.817,1.611,6.817,3.592,11.4,7.183,17.042,7.183ZM0,16.859v2.9c0,1.981,4.58,3.592,10.225,3.592S20.45,21.735,20.45,19.754v-2.9c-2.2,1.908-6.226,2.9-10.225,2.9S2.2,18.767,0,16.859Zm22.155.617c3.052-.623,5.113-1.779,5.113-3.109v-2.4a12.665,12.665,0,0,1-5.113,1.936Zm-11.929-8.5C4.58,8.979,0,10.988,0,13.469s4.58,4.49,10.225,4.49,10.225-2.009,10.225-4.49S15.87,8.979,10.225,8.979ZM21.9,12.139c3.2-.606,5.363-1.8,5.363-3.16v-2.4c-1.891,1.409-5.139,2.166-8.558,2.346A6.12,6.12,0,0,1,21.9,12.139Z" fill="#fff"/>
</svg>
