<svg xmlns="http://www.w3.org/2000/svg" width="28.438" height="18.959" viewBox="0 0 28.438 18.959">
  <path id="folder-open" d="M26.066,71.9H23.7V69.53a2.37,2.37,0,0,0-2.37-2.37h-7.9L10.269,64H2.37A2.37,2.37,0,0,0,0,66.37V80.589a2.37,2.37,0,0,0,2.37,2.37H22.119a2.37,2.37,0,0,0,2.01-1.114l3.947-6.32A2.371,2.371,0,0,0,26.066,71.9Zm-23.4-5.53H9.288l3.16,3.16h8.585a.3.3,0,0,1,.3.3V71.9H7.5a2.37,2.37,0,0,0-2.029,1.146L2.37,78.192V66.666a.3.3,0,0,1,.3-.3ZM22.119,80.589H3.555l3.813-6.32h18.7Z" transform="translate(0 -64)" fill="#fff"/>
</svg>
