<svg xmlns="http://www.w3.org/2000/svg" width="50.258" height="50.283" viewBox="0 0 50.258 50.283">
  <path id="Magnifier" d="M203.168,394.7c-.047.2-.08.4-.145.6a7.461,7.461,0,0,1-5.329,5.123,2.55,2.55,0,0,1-2.643-.755q-4.481-4.542-9.018-9.027a2.508,2.508,0,0,1-.755-2.226,4.734,4.734,0,0,1,.469-1.594.314.314,0,0,0-.075-.431l-3.75-3.75c-.164-.164-.258-.155-.436-.023a17.271,17.271,0,0,1-8.727,3.412,17.956,17.956,0,0,1-19.732-15.743c-.047-.361-.038-.722-.117-1.078v-1.954c.066-.572.117-1.144.206-1.711a17.637,17.637,0,0,1,8.305-12.6,17.4,17.4,0,0,1,10.236-2.672,17.9,17.9,0,0,1,16.873,15,17.7,17.7,0,0,1-3.281,13.592c-.141.2-.136.3.037.469q1.875,1.837,3.693,3.689a.356.356,0,0,0,.5.1,4.486,4.486,0,0,1,1.875-.5,2.4,2.4,0,0,1,1.875.745q4.279,4.307,8.582,8.591c.07.075.141.15.216.216a3.065,3.065,0,0,1,1.111,1.72Zm-32.293-40.687a14.169,14.169,0,1,0,10.047,4.2,14.178,14.178,0,0,0-10.047-4.2Z" transform="translate(-152.91 -350.247)" fill="#fff"/>
</svg>