<svg id="Cart_icon" data-name="Cart icon" xmlns="http://www.w3.org/2000/svg" width="22.48" height="19.825" viewBox="0 0 22.48 19.825">
  <ellipse id="Ellipse_6" data-name="Ellipse 6" cx="1.491" cy="1.491" rx="1.491" ry="1.491" transform="translate(17.489 16.012)" fill="#fff"/>
  <path id="Path_319" data-name="Path 319" d="M343.649,286.408a2.329,2.329,0,1,1,2.329-2.329A2.329,2.329,0,0,1,343.649,286.408Zm0-2.978a.665.665,0,1,0,.665.665A.665.665,0,0,0,343.649,283.43Z" transform="translate(-324.673 -266.584)" fill="#fff"/>
  <ellipse id="Ellipse_7" data-name="Ellipse 7" cx="1.491" cy="1.491" rx="1.491" ry="1.491" transform="translate(6.349 16.012)" fill="#fff"/>
  <path id="Path_320" data-name="Path 320" d="M310.179,286.408a2.329,2.329,0,1,1,2.329-2.329A2.329,2.329,0,0,1,310.179,286.408Zm0-2.978a.665.665,0,1,0,.665.665A.665.665,0,0,0,310.179,283.43Z" transform="translate(-302.34 -266.584)" fill="#fff"/>
  <path id="Path_321" data-name="Path 321" d="M323.931,278.219H312.515a1.165,1.165,0,0,1,0-2.329H323.6a1.165,1.165,0,0,1,1.165,1.165C324.763,277.7,324.573,278.219,323.931,278.219Z" transform="translate(-304.675 -262.673)" fill="#fff"/>
  <path id="Path_322" data-name="Path 322" d="M311.188,248.538h-11.5l.333,2.179-2.193,1.427-2.575-13.007a.27.27,0,0,0-.266-.22h-2.406a1.061,1.061,0,0,1-1.058-1.061v-.333a1.1,1.1,0,0,1,1.1-1.1h3.723a1.1,1.1,0,0,1,1.075.845l.386,1.384H312.6a1.234,1.234,0,0,1,1.208,1.491l-1.6,7.547A1.048,1.048,0,0,1,311.188,248.538Z" transform="translate(-291.443 -236.337)" fill="#fff"/>
  <path id="Path_323" data-name="Path 323" d="M297.622,252.118l-2.6-13.13a.19.19,0,0,0-.186-.153h-2.406a1.145,1.145,0,0,1-1.141-1.145v-.333a1.188,1.188,0,0,1,1.188-1.188H296.2a1.181,1.181,0,0,1,1.155.912l.369,1.331h14.727a1.331,1.331,0,0,1,1.291,1.594l-1.587,7.547a1.141,1.141,0,0,1-1.111.9H299.629l.333,2.136Zm-5.144-15.769a1.022,1.022,0,0,0-1.022,1.022v.333a.978.978,0,0,0,.975.978h2.422a.356.356,0,0,1,.349.289l2.549,12.884,2.046-1.331-.333-2.219h11.6a.975.975,0,0,0,.948-.772l1.6-7.547a1.155,1.155,0,0,0-1.128-1.391H297.6l-.416-1.461a1.018,1.018,0,0,0-1-.785Z" transform="translate(-291.29 -236.17)" fill="#fff"/>
</svg>