<svg xmlns="http://www.w3.org/2000/svg" width="29.648" height="31.242" viewBox="0 0 29.648 31.242">
  <path id="skull" d="M14.824,0C6.636,0,0,6.12,0,13.668a13.27,13.27,0,0,0,5.472,10.6,1.961,1.961,0,0,1,.782,1.824l-.544,4.04a.953.953,0,0,0,.909,1.111h4.5V27.825a.478.478,0,0,1,.463-.488h.926a.478.478,0,0,1,.463.488v3.417h3.706V27.825a.478.478,0,0,1,.463-.488h.926a.478.478,0,0,1,.463.488v3.417h4.5a.953.953,0,0,0,.909-1.111l-.544-4.04a1.954,1.954,0,0,1,.782-1.824,13.27,13.27,0,0,0,5.472-10.6C29.648,6.12,23.012,0,14.824,0ZM9.265,19.526a3.813,3.813,0,0,1-3.706-3.905,3.813,3.813,0,0,1,3.706-3.905,3.813,3.813,0,0,1,3.706,3.905A3.813,3.813,0,0,1,9.265,19.526Zm11.118,0a3.813,3.813,0,0,1-3.706-3.905,3.813,3.813,0,0,1,3.706-3.905,3.813,3.813,0,0,1,3.706,3.905A3.813,3.813,0,0,1,20.383,19.526Z" fill="#fff"/>
</svg>
