<svg xmlns="http://www.w3.org/2000/svg" width="17.603" height="19.619" viewBox="0 0 17.603 19.619">
  <g id="User_Icon" data-name="User Icon" transform="translate(0)">
    <path id="Path_324" data-name="Path 324" d="M314.247,247.374a5.437,5.437,0,1,1,5.437-5.437A5.437,5.437,0,0,1,314.247,247.374Zm0-9.21a3.773,3.773,0,1,0,3.773,3.773A3.773,3.773,0,0,0,314.247,238.164Z" transform="translate(-305.446 -236.5)" fill="#fff"/>
    <path id="Path_325" data-name="Path 325" d="M314.278,279.236H300.723a2.063,2.063,0,0,1-2.023-2.093v-.972a5.048,5.048,0,0,1,1.92-4.016,4.728,4.728,0,0,1,4.079-.865l2.083.556a3,3,0,0,0,1.447,0l2.073-.552a4.732,4.732,0,0,1,4.079.865,5.048,5.048,0,0,1,1.92,4.016v.972A2.063,2.063,0,0,1,314.278,279.236Zm-10.741-6.425a3.085,3.085,0,0,0-1.893.665,3.394,3.394,0,0,0-1.281,2.705v.972a.4.4,0,0,0,.359.429h13.556a.4.4,0,0,0,.359-.429v-.972a3.394,3.394,0,0,0-1.281-2.705,3.071,3.071,0,0,0-2.645-.562l-2.066.549a4.675,4.675,0,0,1-2.279,0l-2.083-.556A3.152,3.152,0,0,0,303.538,272.811Z" transform="translate(-298.699 -259.618)" fill="#fff"/>
  </g>
</svg>